<svg width="512" height="512" viewBox="0 0 512 512" fill="none" xmlns="http://www.w3.org/2000/svg">
<path d="M448 256C448 150 362 64 256 64C150 64 64 150 64 256C64 362 150 448 256 448C362 448 448 362 448 256Z" stroke="#FF0000" stroke-width="32" stroke-miterlimit="10"/>
<path d="M250.26 166.05L256 288L261.73 166.05C261.765 165.27 261.641 164.492 261.366 163.762C261.09 163.032 260.668 162.365 260.126 161.804C259.584 161.242 258.934 160.797 258.214 160.496C257.494 160.194 256.72 160.042 255.94 160.05C255.169 160.057 254.407 160.22 253.7 160.528C252.993 160.836 252.356 161.284 251.826 161.844C251.296 162.404 250.884 163.065 250.615 163.787C250.346 164.51 250.225 165.28 250.26 166.05Z" stroke="#FF0000" stroke-width="32" stroke-linecap="round" stroke-linejoin="round"/>
<path d="M256 367.91C252.044 367.91 248.178 366.737 244.889 364.539C241.6 362.342 239.036 359.218 237.522 355.564C236.009 351.909 235.613 347.888 236.384 344.008C237.156 340.128 239.061 336.565 241.858 333.768C244.655 330.971 248.219 329.066 252.098 328.294C255.978 327.523 259.999 327.919 263.654 329.432C267.308 330.946 270.432 333.51 272.629 336.799C274.827 340.087 276 343.954 276 347.91C276 353.214 273.893 358.301 270.142 362.052C266.391 365.803 261.304 367.91 256 367.91Z" fill="#FF0000"/>
</svg>
