<svg width="450" height="386" viewBox="0 0 450 386" fill="none" xmlns="http://www.w3.org/2000/svg">
<path d="M225 97C241 33.84 301.43 1.58999 433 0.999991C435.103 0.992059 437.188 1.4005 439.132 2.20177C441.077 3.00303 442.844 4.18127 444.331 5.66859C445.819 7.15591 446.997 8.92289 447.798 10.8677C448.599 12.8125 449.008 14.8966 449 17V305C449 309.243 447.314 313.313 444.314 316.314C441.313 319.314 437.243 321 433 321C305 321 255.55 346.81 225 385C194.63 347 145 321 17 321C7.11999 321 0.999991 312.95 0.999991 303.07V17C0.992059 14.8966 1.4005 12.8125 2.20176 10.8677C3.00303 8.92289 4.18128 7.15591 5.6686 5.66859C7.15592 4.18127 8.92289 3.00303 10.8677 2.20177C12.8125 1.4005 14.8966 0.992059 17 0.999991C148.57 1.58999 209 33.84 225 97ZM225 97V385Z" fill="black"/>
<path d="M225 97C241 33.84 301.43 1.58999 433 0.999991C435.103 0.992059 437.188 1.4005 439.132 2.20177C441.077 3.00303 442.844 4.18127 444.331 5.66859C445.819 7.15591 446.997 8.92289 447.798 10.8677C448.599 12.8125 449.008 14.8966 449 17V305C449 309.243 447.314 313.313 444.314 316.314C441.313 319.314 437.243 321 433 321C305 321 255.55 346.81 225 385M225 97C209 33.84 148.57 1.58999 17 0.999991C14.8966 0.992059 12.8125 1.4005 10.8677 2.20177C8.92289 3.00303 7.15592 4.18127 5.6686 5.66859C4.18128 7.15591 3.00303 8.92289 2.20176 10.8677C1.4005 12.8125 0.992059 14.8966 0.999991 17V303.07C0.999991 312.95 7.11999 321 17 321C145 321 194.63 347 225 385M225 97V385" stroke="white" stroke-linecap="round" stroke-linejoin="round"/>
</svg>
